<?xml version="1.0" encoding="utf-8"?>
<!-- Generator: Adobe Illustrator 16.0.0, SVG Export Plug-In . SVG Version: 6.00 Build 0)  -->
<!DOCTYPE svg PUBLIC "-//W3C//DTD SVG 1.1//EN" "http://www.w3.org/Graphics/SVG/1.1/DTD/svg11.dtd">
<svg version="1.1" id="Layer_1" xmlns="http://www.w3.org/2000/svg" xmlns:xlink="http://www.w3.org/1999/xlink" x="0px" y="0px"
	 width="234.093px" height="228.183px" viewBox="0 0 234.093 228.183" enable-background="new 0 0 234.093 228.183"
	 xml:space="preserve">
<g>
	<ellipse fill="#F26522" cx="555.106" cy="303.273" rx="107.792" ry="112.5"/>
	<path fill="#FFFFFF" d="M617.4,338.44c0,49.153-35.729,76.333-61.042,76.333s-60.625-27.514-60.625-76.667
		c0-49.154,35.312-101.336,60.625-101.336S617.4,289.286,617.4,338.44z"/>
</g>
<circle fill="#00AEEF" cx="420.363" cy="42.05" r="18"/>
<circle fill="#00AEEF" cx="328.608" cy="431.194" r="49.861"/>
<g>
	<path fill="none" stroke="#000000" stroke-width="1.5" stroke-miterlimit="10" d="M480.746-20.55
		c-2.082,18.657,43.977,28.569,36.545-31.936"/>
	<path fill="none" stroke="#000000" stroke-width="1.5" stroke-miterlimit="10" d="M555.037-20.55
		c2.082,18.657-43.977,28.569-36.545-31.936"/>
</g>
<g>
	<g>
		<circle fill="#F26522" cx="193.276" cy="40.818" r="40.818"/>
		<circle cx="193.275" cy="40.818" r="26.823"/>
	</g>
	<g>
		<circle fill="#F37132" cx="40.818" cy="40.818" r="40.818"/>
		<circle cx="40.817" cy="40.818" r="26.823"/>
	</g>
	<linearGradient id="SVGID_1_" gradientUnits="userSpaceOnUse" x1="214.3423" y1="8.2314" x2="156.8934" y2="108.7474">
		<stop  offset="0.5933" style="stop-color:#DB5C1E"/>
		<stop  offset="1" style="stop-color:#F26522"/>
	</linearGradient>
	<path fill="url(#SVGID_1_)" d="M173.093,211.667c2.082,0.521,4.151,0.962,6.213,1.362c27.776-19.602,45.873-51.63,45.873-87.819
		c0-59.657-49.174-108.02-109.834-108.02v189.573C134.324,206.311,153.41,206.746,173.093,211.667z"/>
	<linearGradient id="SVGID_2_" gradientUnits="userSpaceOnUse" x1="18.1792" y1="4.9487" x2="62.9023" y2="85.3041">
		<stop  offset="0.471" style="stop-color:#BF5825"/>
		<stop  offset="1" style="stop-color:#F37132"/>
	</linearGradient>
	<path fill="url(#SVGID_2_)" d="M9.401,125.229c0,32.107,13.89,60.937,35.931,80.723c7.561,0.786,14.908,1.001,22.761,1.715
		c16.24,0.464,32.265-0.578,48.375-0.93V17.209C57.336,17.209,9.401,65.572,9.401,125.229z"/>
	<polygon points="161.561,38.981 116.41,46.364 71.402,38.982 116.41,30.601 	"/>
	<polygon points="147.001,62.594 116.433,67.592 85.961,62.594 116.433,56.92 	"/>
	<path fill="#FEDCB6" d="M118.827,228.183c59.583,0,106.266-26.818,106.266-59.9c0-4.732-3.938-14.45-3.938-14.45
		s-43.228,0-104.872,14.45c-60.022-14.45-103.071-14.45-103.071-14.45s-4.118,9.598-4.118,14.45
		C9.093,201.364,59.242,228.183,118.827,228.183z"/>
	<ellipse cx="116.16" cy="166.527" rx="20.611" ry="11.195"/>
	<ellipse fill="#141414" cx="116.468" cy="166.281" rx="19.471" ry="10.576"/>
	
		<ellipse transform="matrix(0.1393 0.9902 -0.9902 0.1393 255.9494 29.2665)" fill="#F3F4F4" cx="111.138" cy="161.876" rx="3.844" ry="9.181"/>
	
		<ellipse transform="matrix(0.1394 0.9902 -0.9902 0.1394 257.249 25.7447)" fill="#F1F2F2" cx="113.813" cy="160.869" rx="2.211" ry="5.28"/>
	<g>
		<circle fill="#FFFFFF" cx="75.804" cy="112.463" r="22.722"/>
		<circle cx="75.805" cy="115.076" r="17.89"/>
		
			<ellipse transform="matrix(0.5035 0.864 -0.864 0.5035 128.3875 -4.9132)" fill="#FFFFFF" cx="68.469" cy="109.254" rx="13.169" ry="12.984"/>
		
			<ellipse transform="matrix(0.5037 0.8639 -0.8639 0.5037 153.7348 -6.3362)" fill="#FFFFFF" cx="82.382" cy="130.628" rx="2.348" ry="2.315"/>
	</g>
	<circle fill="#FFFFFF" cx="157.426" cy="112.448" r="22.721"/>
	<circle cx="157.427" cy="115.062" r="17.89"/>
	
		<ellipse transform="matrix(0.5035 0.864 -0.864 0.5035 168.8989 -75.4408)" fill="#FFFFFF" cx="150.091" cy="109.239" rx="13.169" ry="12.984"/>
	
		<ellipse transform="matrix(0.5037 0.8639 -0.8639 0.5037 194.232 -76.8555)" fill="#FFFFFF" cx="164.004" cy="130.614" rx="2.348" ry="2.314"/>
	<g>
		<path d="M221.628,97.86c-2.613,0-21.895,0.034-21.895,0.034s16.051-14.128,16.816-14.71
			C218.078,86.401,221.015,94.807,221.628,97.86z"/>
		<path d="M224.925,132.626c-0.697-0.237-20.302-6.899-20.302-6.899s19.375-8.146,20.274-8.486
			C225.453,122.792,225.109,130.807,224.925,132.626z"/>
	</g>
	<g>
		<path d="M12.973,97.685c2.613,0,21.895,0.034,21.895,0.034s-16.051-14.128-16.816-14.71
			C16.523,86.226,13.586,94.632,12.973,97.685z"/>
		<path d="M9.676,132.451c0.697-0.237,20.302-6.899,20.302-6.899s-19.375-8.146-20.274-8.486
			C9.148,122.617,9.492,130.632,9.676,132.451z"/>
	</g>
	<path d="M139.444,19.827c1.174,0-23.02,2.39-23.02,2.39s-21.773-2.349-22.946-2.528C106.38,16.803,121.94,15.915,139.444,19.827z"
		/>
	<g>
		<circle cx="195.618" cy="169.776" r="1"/>
		<circle cx="210.286" cy="164.924" r="1"/>
		<circle cx="205.943" cy="179.445" r="1"/>
	</g>
	<path fill="none" stroke="#000000" stroke-width="1.25" stroke-miterlimit="10" d="M116.16,176.26
		c0,11.456,6.74,31.39,28.657,19.571"/>
	<path fill="none" stroke="#000000" stroke-width="1.25" stroke-miterlimit="10" d="M116.359,176.261
		c0,11.456-6.74,31.389-28.657,19.571"/>
	<g>
		<circle cx="37.863" cy="169.776" r="1"/>
		<circle cx="23.194" cy="164.924" r="1"/>
		<circle cx="27.538" cy="179.445" r="1"/>
	</g>
</g>
</svg>
